#!OML:ASF F:\VICON\USERDATA\INSTALL\rory3\rory3.ASF
:FULLY-SPECIFIED
:DEGREES
184
root 0.0974821 18.0675 5.21543 -2.81367 -4.84088 -6.03587
lowerback 10.7117 1.31084 5.77703
upperback 0.936095 2.54716 2.30922
thorax -4.88544 1.15688 -1.20465
lowerneck -15.9934 -3.04109 -1.55536
upperneck 21.5511 -3.9951 0.648349
head 9.49062 -1.91434 -0.0281852
rclavicle -1.69712e-014 -1.03368e-014
rhumerus -24.4635 -11.3901 -82.2272
rradius 27.5303
rwrist 1.83994
rhand -18.461 23.4029
rfingers 7.12502
rthumb 7.82542 -6.43228
lclavicle -1.69712e-014 -1.03368e-014
lhumerus -32.6647 0.626942 85.3421
lradius 25.4717
lwrist 5.66019
lhand -27.8541 22.1507
lfingers 7.12502
lthumb -1.24499 52.1268
rfemur -4.293 7.08466 32.9134
rtibia 29.7806
rfoot -17.4195 -5.42727
rtoes 8.45358
lfemur -25.4604 2.07983 -13.7103
ltibia 51.3741
lfoot -9.72964 1.41844
ltoes -1.1863
185
root 0.0949037 18.0629 5.39017 -2.76341 -4.91188 -5.99277
lowerback 10.5508 1.38035 5.77592
upperback 0.923926 2.62256 2.21962
thorax -4.79938 1.19556 -1.30318
lowerneck -15.9058 -3.03392 -1.39279
upperneck 21.466 -4.00442 0.552287
head 9.43865 -1.91722 -0.0870647
rclavicle 1.06847e-015 -1.78906e-015
rhumerus -24.2645 -11.1161 -82.3725
rradius 27.7022
rwrist 1.85586
rhand -18.0829 23.8261
rfingers 7.12502
rthumb 8.19029 -5.99518
lclavicle 1.06847e-015 -1.78906e-015
lhumerus -32.977 0.872103 85.1996
lradius 25.5478
lwrist 5.4196
lhand -28.2445 22.1505
lfingers 7.12502
lthumb -1.62206 52.1241
rfemur -3.52009 7.08034 32.9182
rtibia 29.4991
rfoot -17.9676 -5.50559
rtoes 7.92286
lfemur -25.5636 1.74067 -13.6703
ltibia 48.8232
lfoot -9.40344 1.87369
ltoes -1.82229
186
root 0.0944879 18.0626 5.55536 -2.59314 -4.92864 -5.86821
lowerback 10.288 1.43071 5.74463
upperback 0.989718 2.65551 2.10129
thorax -4.57673 1.21884 -1.40379
lowerneck -16.1347 -2.97863 -1.33504
upperneck 21.4478 -3.934 0.533971
head 9.47236 -1.88038 -0.0974539
rclavicle 1.81267e-014 5.36719e-015
rhumerus -23.7984 -10.7333 -82.5637
rradius 27.9164
rwrist 1.52627
rhand -18.0801 23.8355
rfingers 7.12502
rthumb 8.19303 -5.98568
lclavicle 1.81267e-014 5.36719e-015
lhumerus -32.8124 1.58866 84.8218
lradius 25.5509
lwrist 3.22205
lhand -25.805 28.9959
lfingers 7.12502
lthumb 0.734111 58.9744
rfemur -3.01852 6.84545 32.7626
rtibia 29.2889
rfoot -18.4113 -5.36722
rtoes 7.52851
lfemur -25.71 1.31277 -13.6753
ltibia 46.2352
lfoot -9.27991 2.04054
ltoes 0.800936
187
root 0.0936647 18.0528 5.71677 -2.53217 -5.09622 -5.92504
lowerback 10.2635 1.51504 5.84187
upperback 1.0239 2.77199 2.05222
thorax -4.51259 1.27636 -1.52309
lowerneck -16.2144 -2.97507 -1.31495
upperneck 21.3879 -3.94398 0.583652
head 9.46694 -1.87747 -0.0856928
rclavicle 3.51849e-014 2.46493e-014
rhumerus -23.4222 -10.326 -82.7369
rradius 28.2563
rwrist 1.06651
rhand -17.9175 23.4736
rfingers 7.12502
rthumb 8.34992 -6.34138
lclavicle 3.51849e-014 2.46493e-014
lhumerus -33.024 1.44645 84.9637
lradius 25.1991
lwrist 5.63787
lhand -27.3356 24.6836
lfingers 7.12502
lthumb -0.744202 54.662
rfemur -2.4341 6.87908 32.8613
rtibia 29.1404
rfoot -18.7675 -5.38367
rtoes 7.43998
lfemur -25.8159 1.01304 -13.4514
ltibia 43.634
lfoot -8.66147 2.05288
ltoes 0.921445
188
root 0.0896582 18.0274 5.87526 -2.47097 -5.39457 -6.20187
lowerback 10.4167 1.60238 6.01664
upperback 0.97337 2.92599 2.1217
thorax -4.63618 1.34483 -1.57502
lowerneck -16.1899 -2.93608 -1.3483
upperneck 21.3465 -3.89712 0.653617
head 9.44977 -1.8508 -0.0492814
rclavicle 1.63935e-014 -4.07509e-015
rhumerus -23.1907 -9.78459 -82.9168
rradius 28.9368
rwrist 0.0771105
rhand -17.4242 22.0935
rfingers 7.12502
rthumb 8.82604 -7.70189
lclavicle 1.63935e-014 -4.07509e-015
lhumerus -33.4733 1.56663 85.0244
lradius 25.1951
lwrist 7.44221
lhand -28.1764 21.6431
lfingers 7.12502
lthumb -1.55627 51.6172
rfemur -1.77971 7.10616 33.2597
rtibia 28.8651
rfoot -18.8807 -5.61759
rtoes 6.58846
lfemur -25.933 0.744219 -12.9329
ltibia 40.9948
lfoot -7.24791 2.18998
ltoes -4.91474
189
root 0.0886715 18.0022 6.0328 -2.3945 -5.81358 -6.59661
lowerback 10.496 1.67277 6.28727
upperback 0.958546 3.06491 2.26669
thorax -4.68093 1.40728 -1.5962
lowerneck -16.062 -2.88353 -1.503
upperneck 21.2579 -3.80437 0.742205
head 9.3994 -1.81148 0.0214431
rclavicle 2.58917e-014 2.47487e-014
rhumerus -23.0084 -9.16708 -83.0283
rradius 29.0987
rwrist 0.13145
rhand -17.7477 22.1596
rfingers 7.12502
rthumb 8.51381 -7.64873
lclavicle 2.58917e-014 2.47487e-014
lhumerus -33.7717 1.82235 85.2087
lradius 24.6937
lwrist 8.10963
lhand -30.079 17.8551
lfingers 7.12502
lthumb -3.3937 47.8079
rfemur -1.10578 7.24755 33.712
rtibia 28.5279
rfoot -18.897 -5.58424
rtoes 6.58964
lfemur -25.8778 0.217582 -12.1651
ltibia 38.3142
lfoot -7.57058 2.39821
ltoes -3.21277
190
root 0.0925053 18.0097 6.20235 -2.3099 -6.091 -6.7913
lowerback 10.3028 1.72729 6.50966
upperback 1.00018 3.14565 2.31663
thorax -4.51459 1.44914 -1.66962
lowerneck -15.8596 -2.86468 -1.65661
upperneck 21.0918 -3.75711 0.822349
head 9.30845 -1.7949 0.0847774
rclavicle -6.27414e-015 -1.64991e-014
rhumerus -22.7363 -8.61266 -83.1126
rradius 29.213
rwrist -0.0345656
rhand -17.6967 22.1275
rfingers 7.12502
rthumb 8.56302 -7.67885
lclavicle -6.27414e-015 -1.64991e-014
lhumerus -34.1023 2.23584 85.2385
lradius 24.5358
lwrist 7.90786
lhand -30.9678 16.3879
lfingers 7.12502
lthumb -4.25201 46.3252
rfemur -0.300694 7.53483 33.9562
rtibia 28.1482
rfoot -19.0861 -5.6534
rtoes 6.88989
lfemur -25.6421 -0.503481 -11.6163
ltibia 35.4388
lfoot -7.06588 2.46005
ltoes -1.90482
191
root 0.092925 18.0047 6.37537 -2.197 -6.14059 -6.94929
lowerback 10.1447 1.75621 6.69596
upperback 0.991616 3.19159 2.32205
thorax -4.42223 1.47127 -1.76691
lowerneck -15.8592 -2.82339 -1.57319
upperneck 21.0916 -3.69468 0.711344
head 9.30339 -1.77149 0.0408778
rclavicle -2.52643e-014 -1.88845e-015
rhumerus -22.4955 -8.63044 -83.1372
rradius 29.2679
rwrist 0.154722
rhand -17.7355 22.0842
rfingers 7.12502
rthumb 8.52556 -7.72374
lclavicle -2.52643e-014 -1.88845e-015
lhumerus -34.3464 2.69336 85.0356
lradius 24.6835
lwrist 7.64452
lhand -29.9408 18.0206
lfingers 7.12502
lthumb -3.26028 47.9754
rfemur 0.461769 7.64799 34.1885
rtibia 27.7484
rfoot -19.396 -5.77433
rtoes 6.92427
lfemur -25.5029 -1.30103 -11.1323
ltibia 32.3763
lfoot -6.49228 2.40995
ltoes -0.993599
192
root 0.0926271 17.9908 6.54849 -2.01345 -6.26604 -6.9603
lowerback 9.98575 1.82688 6.69025
upperback 0.907006 3.27362 2.2763
thorax -4.41369 1.51038 -1.81697
lowerneck -15.8754 -2.7994 -1.47233
upperneck 21.1556 -3.67339 0.648402
head 9.32493 -1.76014 0.00457258
rclavicle -2.29224e-014 -6.16232e-015
rhumerus -22.5389 -8.6128 -83.1627
rradius 29.6211
rwrist 0.221931
rhand -18.063 21.9143
rfingers 7.12502
rthumb 8.20954 -7.9062
lclavicle -2.29224e-014 -6.16232e-015
lhumerus -34.5441 3.33935 84.6559
lradius 24.6326
lwrist 7.27616
lhand -27.963 20.0465
lfingers 7.12502
lthumb -1.35018 50.022
rfemur 1.1411 7.82192 34.2368
rtibia 27.2257
rfoot -19.4985 -5.83359
rtoes 7.02573
lfemur -25.2537 -2.19028 -10.7259
ltibia 29.0201
lfoot -6.18863 2.57962
ltoes -1.69305
